<svg viewBox="0 0 202 202" version="1.1" xmlns="http://www.w3.org/2000/svg">
    <title>Logo</title>
    <defs>
        <rect id="path-1" x="0" y="33" width="164" height="166"></rect>
        <rect id="path-2" x="35" y="0" width="164" height="166"></rect>
    </defs>
    <g id="Page-1" stroke="none" stroke-width="1" fill="none" fill-rule="evenodd">
        <g id="cube" transform="translate(1.000000, 1.000000)" stroke="#0A192F">
            <g id="front">
                <rect stroke-width="6" stroke-linejoin="square" x="3" y="36" width="158" height="160"></rect>
                <use stroke-width="2" xlink:href="#path-1"></use>
            </g>
            <g id="back">
                <rect stroke-width="6" stroke-linejoin="square" x="38" y="3" width="158" height="160"></rect>
                <use stroke-width="2" xlink:href="#path-2"></use>
            </g>
            <g id="edges" transform="translate(1.000000, 1.000000)" fill="#0A192F">
                <path d="M0,33 L35,0" id="Path" stroke-width="5.5"></path>
                <path d="M0,196 L39,160" id="Path-2" stroke-width="6"></path>
                <path d="M158,38 L197,1" id="Path-4" stroke-width="6"></path>
                <path d="M162,197 L197,164" id="Path-4" stroke-width="6"></path>
            </g>
        </g>
        <path d="M84.0653266,58 L101.934673,58 L135,144 L116.708543,144 L108.969849,123.270358 L76.6080402,123.270358 L69.0100503,144 L51,144 L84.0653266,58 Z M92.5,79 L82,108 L103,108 L92.5,79 Z" id="A" fill="#FF9900"></path>
    </g>
</svg>
