<svg viewBox="0 0 202 202" version="1.1" xmlns="http://www.w3.org/2000/svg" style="">
    <title>Logo</title>
    <defs>
        <path id="path-1" width="164" height="166" d="M0 33 L164 33 L164 199 L0 199 Z" class="yjXwKuNy_0"></path>
        <path id="path-2" width="164" height="166" d="M35 0 L199 0 L199 166 L35 166 Z" class="yjXwKuNy_1"></path>
    </defs>
    <g id="Page-1" stroke="none" stroke-width="1" fill="none" fill-rule="evenodd">
        <g id="cube" transform="translate(1.000000, 1.000000)" stroke="#0A192F">
            <g id="front">
                <path stroke-width="6" stroke-linejoin="square" width="158" height="160" d="M3 36 L161 36 L161 196 L3 196 Z" class="yjXwKuNy_2"></path>
                <use stroke-width="2" xlink:href="#path-1"></use>
            </g>
            <g id="back">
                <path stroke-width="6" stroke-linejoin="square" width="158" height="160" d="M38 3 L196 3 L196 163 L38 163 Z" class="yjXwKuNy_3"></path>
                <use stroke-width="2" xlink:href="#path-2"></use>
            </g>
            <g id="edges" transform="translate(1.000000, 1.000000)" fill="#0A192F">
                <path d="M0,33 L35,0" id="Path" stroke-width="5.5" class="yjXwKuNy_4"></path>
                <path d="M0,196 L39,160" id="Path-2" stroke-width="6" class="yjXwKuNy_5"></path>
                <path d="M158,38 L197,1" id="Path-4" stroke-width="6" class="yjXwKuNy_6"></path>
                <path d="M162,197 L197,164" id="Path-4" stroke-width="6" class="yjXwKuNy_7"></path>
            </g>
        </g>
        <path d="M84.0653266,58 L101.934673,58 L135,144 L116.708543,144 L108.969849,123.270358 L76.6080402,123.270358 L69.0100503,144 L51,144 L84.0653266,58 Z M92.5,79 L82,108 L103,108 L92.5,79 Z" id="A" fill="#FF9900" class="yjXwKuNy_8"></path>
    </g>
<style data-made-with="vivus-instant">.yjXwKuNy_0{stroke-dasharray:660 662;stroke-dashoffset:661;animation:yjXwKuNy_draw 2000ms linear 0ms forwards;}.yjXwKuNy_1{stroke-dasharray:660 662;stroke-dashoffset:661;animation:yjXwKuNy_draw 2000ms linear 125ms forwards;}.yjXwKuNy_2{stroke-dasharray:636 638;stroke-dashoffset:637;animation:yjXwKuNy_draw 2000ms linear 250ms forwards;}.yjXwKuNy_3{stroke-dasharray:636 638;stroke-dashoffset:637;animation:yjXwKuNy_draw 2000ms linear 375ms forwards;}.yjXwKuNy_4{stroke-dasharray:49 51;stroke-dashoffset:50;animation:yjXwKuNy_draw 2000ms linear 500ms forwards;}.yjXwKuNy_5{stroke-dasharray:54 56;stroke-dashoffset:55;animation:yjXwKuNy_draw 2000ms linear 625ms forwards;}.yjXwKuNy_6{stroke-dasharray:54 56;stroke-dashoffset:55;animation:yjXwKuNy_draw 2000ms linear 750ms forwards;}.yjXwKuNy_7{stroke-dasharray:49 51;stroke-dashoffset:50;animation:yjXwKuNy_draw 2000ms linear 875ms forwards;}.yjXwKuNy_8{stroke-dasharray:398 400;stroke-dashoffset:399;animation:yjXwKuNy_draw 2000ms linear 1000ms forwards;}@keyframes yjXwKuNy_draw{100%{stroke-dashoffset:0;}}@keyframes yjXwKuNy_fade{0%{stroke-opacity:1;}94.44444444444444%{stroke-opacity:1;}100%{stroke-opacity:0;}}</style></svg>
